<?xml version="1.0" encoding="iso-8859-1"?>
<!-- Generator: Adobe Illustrator 21.0.0, SVG Export Plug-In . SVG Version: 6.00 Build 0)  -->
<svg version="1.1" id="Capa_1" xmlns="http://www.w3.org/2000/svg" xmlns:xlink="http://www.w3.org/1999/xlink" x="0px" y="0px"
	 viewBox="0 0 512 512" style="enable-background:new 0 0 512 512;" xml:space="preserve">
<linearGradient id="SVGID_1_" gradientUnits="userSpaceOnUse" x1="74.9807" y1="439.0193" x2="437.0193" y2="76.9807" gradientTransform="matrix(1 0 0 -1 0 514)">
	<stop  offset="0" style="stop-color:#6DE6FF"/>
	<stop  offset="1" style="stop-color:#0CA7FC"/>
</linearGradient>
<circle style="fill:url(#SVGID_1_);" cx="256" cy="256" r="256"/>
<g>
	
		<linearGradient id="SVGID_2_" gradientUnits="userSpaceOnUse" x1="160.67" y1="102.917" x2="344.37" y2="102.917" gradientTransform="matrix(1 0 0 -1 0 514)">
		<stop  offset="0" style="stop-color:#FDCE17"/>
		<stop  offset="1" style="stop-color:#FD880C"/>
	</linearGradient>
	<path style="fill:url(#SVGID_2_);" d="M161.77,397.25h56.474c6.26,0,11.334,6.193,11.334,13.833l0,0
		c0,7.64-5.075,13.833-11.334,13.833h-79.143l0,0C139.101,409.637,149.251,397.25,161.77,397.25z"/>
	
		<linearGradient id="SVGID_3_" gradientUnits="userSpaceOnUse" x1="160.67" y1="102.917" x2="344.37" y2="102.917" gradientTransform="matrix(1 0 0 -1 0 514)">
		<stop  offset="0" style="stop-color:#FDCE17"/>
		<stop  offset="1" style="stop-color:#FD880C"/>
	</linearGradient>
	<path style="fill:url(#SVGID_3_);" d="M350.23,397.25h-56.474c-6.26,0-11.335,6.193-11.335,13.833l0,0
		c0,7.64,5.075,13.833,11.335,13.833h79.143l0,0C372.899,409.637,362.75,397.25,350.23,397.25z"/>
</g>
<linearGradient id="SVGID_4_" gradientUnits="userSpaceOnUse" x1="97.5571" y1="271.416" x2="414.4408" y2="271.416" gradientTransform="matrix(1 0 0 -1 0 514)">
	<stop  offset="0" style="stop-color:#56545B"/>
	<stop  offset="1" style="stop-color:#0F0F11"/>
</linearGradient>
<path style="fill:url(#SVGID_4_);" d="M386.194,238.331c-11.812-17.014-24.273-31.037-34.56-39.602
	c-6.136-14.648-11.237-30.026-12.845-50.425c-3.15-39.958-20.698-88.054-82.79-88.054s-79.639,48.096-82.79,88.054
	c-1.608,20.399-6.708,35.776-12.845,50.425c-10.287,8.565-22.748,22.589-34.56,39.603c-22.213,31.996-33.715,62.448-25.692,68.019
	c5.317,3.691,17.876-4.478,32.206-19.715c-0.263,2.367-0.499,4.788-0.701,7.282c-6.772,83.607,59.855,131,124.382,131
	s131.154-47.393,124.382-131c-0.202-2.494-0.439-4.915-0.702-7.282c14.331,15.237,26.889,23.406,32.206,19.715
	C419.91,300.78,408.407,270.327,386.194,238.331z"/>
<linearGradient id="SVGID_5_" gradientUnits="userSpaceOnUse" x1="158.1379" y1="268.6668" x2="353.8623" y2="268.6668" gradientTransform="matrix(1 0 0 -1 0 514)">
	<stop  offset="0" style="stop-color:#FFFFFF"/>
	<stop  offset="1" style="stop-color:#FDF3CA"/>
</linearGradient>
<path style="fill:url(#SVGID_5_);" d="M340.885,235.288c-17.138-41.834-19.758-49.196-23.66-91.62
	c-3.903-42.424-24.88-53.601-42.198-49.44C258.321,98.241,256,115.031,256,115.031s-2.321-16.791-19.026-20.804
	c-17.318-4.161-38.296,7.016-42.199,49.44s-6.522,49.786-23.66,91.62C148.187,291.255,144.446,394.068,256,397.25
	C367.553,394.068,363.814,291.255,340.885,235.288z"/>
<linearGradient id="SVGID_6_" gradientUnits="userSpaceOnUse" x1="231.061" y1="320.7915" x2="280.94" y2="320.7915" gradientTransform="matrix(1 0 0 -1 0 514)">
	<stop  offset="0" style="stop-color:#FDCE17"/>
	<stop  offset="1" style="stop-color:#FD880C"/>
</linearGradient>
<polygon style="fill:url(#SVGID_6_);" points="256,172 231.061,183.193 256,214.417 280.94,183.193 "/>
<circle style="fill:#56545B;" cx="229.4" cy="154.91" r="10.655"/>
<circle style="fill:#29292B;" cx="282.6" cy="154.91" r="10.655"/>
<g>
</g>
<g>
</g>
<g>
</g>
<g>
</g>
<g>
</g>
<g>
</g>
<g>
</g>
<g>
</g>
<g>
</g>
<g>
</g>
<g>
</g>
<g>
</g>
<g>
</g>
<g>
</g>
<g>
</g>
</svg>
